<?xml version="1.0" encoding="utf-8"?>
<!-- Generator: Adobe Illustrator 16.0.0, SVG Export Plug-In . SVG Version: 6.00 Build 0)  -->
<!DOCTYPE svg PUBLIC "-//W3C//DTD SVG 1.1//EN" "http://www.w3.org/Graphics/SVG/1.1/DTD/svg11.dtd">
<svg version="1.1" id="Layer_1" xmlns="http://www.w3.org/2000/svg" xmlns:xlink="http://www.w3.org/1999/xlink" x="0px" y="0px"
	 width="335.983px" height="335.983px" viewBox="0 0 335.983 335.983" enable-background="new 0 0 335.983 335.983"
	 xml:space="preserve">
<line fill="none" stroke="#000000" stroke-width="5" stroke-miterlimit="10" x1="52.223" y1="118.734" x2="278.37" y2="118.734"/>
<line fill="none" stroke="#000000" stroke-width="5" stroke-miterlimit="10" x1="52.223" y1="217.401" x2="278.37" y2="217.401"/>
<g>
	<path d="M128.923,155.881l6.847,25.865h-5.434l-1.196-5.47h-6.882l-1.195,5.47h-5.435l6.847-25.865H128.923z M128.235,172
		l-2.501-11.627h-0.072L123.164,172H128.235z"/>
	<path d="M163.122,155.881c2.175,0,3.863,0.549,5.07,1.648c1.208,1.099,1.812,2.771,1.812,5.017c0,1.739-0.349,3.158-1.05,4.257
		c-0.7,1.099-1.787,1.806-3.259,2.119v0.072c1.304,0.193,2.256,0.617,2.86,1.269c0.604,0.65,0.979,1.703,1.123,3.15
		c0.05,0.483,0.084,1.01,0.108,1.576c0.023,0.567,0.049,1.203,0.073,1.903c0.046,1.375,0.119,2.427,0.217,3.15
		c0.146,0.724,0.46,1.22,0.94,1.486v0.217h-5.65c-0.265-0.362-0.434-0.779-0.508-1.251c-0.07-0.471-0.119-0.959-0.144-1.466
		l-0.146-4.963c-0.047-1.015-0.301-1.812-0.759-2.392c-0.46-0.579-1.23-0.869-2.318-0.869h-2.79v10.94h-5.217v-25.865H163.122z
		 M160.875,167.183c1.256,0,2.222-0.295,2.896-0.887c0.677-0.591,1.017-1.587,1.017-2.988c0-2.392-1.21-3.587-3.622-3.587h-2.465
		v7.462H160.875z"/>
	<path d="M206.022,160.156h-5.65v21.59h-5.217v-21.59h-5.651v-4.275h16.519V160.156z"/>
</g>
</svg>
