<?xml version="1.0" encoding="utf-8"?>
<!-- Generator: Adobe Illustrator 16.0.0, SVG Export Plug-In . SVG Version: 6.00 Build 0)  -->
<!DOCTYPE svg PUBLIC "-//W3C//DTD SVG 1.1//EN" "http://www.w3.org/Graphics/SVG/1.1/DTD/svg11.dtd">
<svg version="1.1" id="Layer_1" xmlns="http://www.w3.org/2000/svg" xmlns:xlink="http://www.w3.org/1999/xlink" x="0px" y="0px"
	 width="335.983px" height="335.983px" viewBox="0 0 335.983 335.983" enable-background="new 0 0 335.983 335.983"
	 xml:space="preserve">
<g>
	<path d="M62.976,165.914h0.071l6.553-10.296h5.615l-6.983,11.016l7.775,14.688h-5.832l-5.292-10.548l-1.907,2.916v7.632h-5.185
		v-25.704h5.185V165.914z"/>
	<path d="M93.934,155.618h5.185v25.704h-5.185V155.618z"/>
	<path d="M134.579,159.866h-5.615v21.456h-5.185v-21.456h-5.616v-4.248h16.416V159.866z"/>
	<path d="M163.685,160.208c-0.444-0.852-1.255-1.278-2.431-1.278c-0.647,0-1.182,0.174-1.602,0.522
		c-0.42,0.348-0.75,0.913-0.99,1.692c-0.24,0.78-0.408,1.8-0.504,3.06c-0.096,1.26-0.144,2.803-0.144,4.626
		c0,1.944,0.065,3.517,0.197,4.716c0.132,1.201,0.336,2.131,0.612,2.791c0.275,0.66,0.624,1.104,1.044,1.332
		c0.42,0.228,0.906,0.342,1.458,0.342c0.456,0,0.882-0.078,1.278-0.234c0.396-0.156,0.738-0.469,1.025-0.936
		c0.288-0.469,0.517-1.129,0.685-1.98s0.252-1.975,0.252-3.366h5.184c0,1.392-0.107,2.712-0.323,3.96
		c-0.217,1.248-0.618,2.34-1.206,3.276c-0.589,0.937-1.417,1.668-2.484,2.196c-1.068,0.527-2.454,0.791-4.158,0.791
		c-1.943,0-3.492-0.312-4.644-0.936c-1.152-0.623-2.034-1.523-2.646-2.7c-0.611-1.175-1.008-2.579-1.188-4.212
		c-0.181-1.632-0.271-3.432-0.271-5.4c0-1.944,0.09-3.738,0.271-5.382c0.18-1.644,0.576-3.054,1.188-4.23
		c0.612-1.176,1.494-2.094,2.646-2.754c1.151-0.66,2.7-0.99,4.644-0.99c1.848,0,3.306,0.3,4.374,0.9
		c1.067,0.6,1.866,1.362,2.395,2.286c0.527,0.924,0.857,1.92,0.989,2.988c0.132,1.068,0.198,2.07,0.198,3.006h-5.184
		C164.351,162.422,164.128,161.06,163.685,160.208z"/>
	<path d="M194.448,155.618v9.828h6.048v-9.828h5.184v25.704h-5.184V169.91h-6.048v11.412h-5.185v-25.704H194.448z"/>
	<path d="M240.203,159.866h-9.18v6.048h8.64v4.248h-8.64v6.912h9.54v4.248h-14.725v-25.704h14.364V159.866z"/>
	<path d="M271.955,173.221h0.072v-17.604h4.752v25.704h-5.904l-6.336-18h-0.072v18h-4.752v-25.704h5.977L271.955,173.221z"/>
</g>
<line fill="none" stroke="#000000" stroke-width="5" stroke-miterlimit="10" x1="52.223" y1="118.734" x2="278.37" y2="118.734"/>
<line fill="none" stroke="#000000" stroke-width="5" stroke-miterlimit="10" x1="52.223" y1="217.401" x2="278.37" y2="217.401"/>
</svg>
